<?xml version="1.0" encoding="UTF-8"?>
<svg id="Layer_1" data-name="Layer 1" xmlns="http://www.w3.org/2000/svg" viewBox="0 0 133.28 40.05">
  <defs>
    <style>
      .cls-1 {
        fill: #231f20;
      }
    </style>
  </defs>
  <path d="M21.88,1.53c.18-.64-.38-1.31-1.02-1.48s-2.23,.15-2.88,.32c-3.77,.99-5.56,1.82-8.38,3.56-2.41,1.48-5.74,4.03-6.35,7.02-.64,3.15,2.17,6.01,4.83,7.16,2.24,.97,4.81,1.11,7.21,.82,2.27-.27,4.73-.69,6.61-2.09,1.59-1.18,1.94-3.21,.38-4.59-1.21-1.06-3.03-1.36-4.58-1.35-3.63,.02-7.33,.99-10.5,2.84-2.84,1.66-6.68,4.71-6.34,8.42,.31,3.43,4.38,5.65,7.33,6.58,4.42,1.38,10.12,.16,13.23-2.17,.58-.43,1.16-1.16,1.06-1.87-.08-.59-.6-1.01-1.12-1.29-2.17-1.21-4.81-1.24-7.27-.84-5.47,.89-11.75,4.23-13.69,9.78-.4,1.14-.54,2.4-.22,3.57,1.62,5.88,12.81,4.34,17.38,2.44,1.6-.66,2.79-1.43,3.77-2.25-.89,.37-2.61,.95-3.09,1.06-2.8,.66-5.34,1.21-8.22,1.23-2.26,.02-6.15-.2-7.64-2.28-.55-.77-.66-1.81-.43-2.73,1.16-4.79,6.74-7.62,10.94-8.66,2.13-.53,5.6-.96,7.73-.06,.47,.2,.64,.44-.49,1.02-1.03,.53-5.61,2.65-9.49,2.01-4.51-.75-8.64-3.72-8.18-6.14,.46-2.47,2.92-4.59,5.01-5.68,3.06-1.6,6.46-2.59,9.89-2.94,1.17-.12,2.37-.16,3.53,.1,.53,.12,1.07,.32,1.39,.76,.08,.11,.15,.24,.14,.38,0,.24-.74,.86-.94,1-1.19,.84-3.32,1.5-5.46,1.97-2.87,.63-7.47,.33-9.68-2.14-.84-.94-1.22-1.79-1.17-2.78,.08-1.52,1.02-2.84,2.07-3.87C11.38,4.22,16.75,2.82,21.88,1.53Z"/>
  <path d="M31.35,12.83h2.04v12.37h6.4v1.85h-8.44V12.83Z"/>
  <path d="M49.52,22.64h-6.53c.05,.9,.29,1.55,.84,2.08s1.33,.74,2.2,.74c1.1,0,2.12-.31,3.06-.92,.14-.09,.32,0,.32,.17v1.3c-.48,.53-1.13,.77-1.69,.93-.56,.16-1.22,.24-1.97,.24-1.03,0-1.98-.21-2.62-.64-.64-.43-1.09-.89-1.47-1.61-.38-.72-.52-1.68-.52-2.63,0-1.43,.35-2.64,1.15-3.53,.81-.89,1.91-1.28,3.2-1.28s2.35,.38,3.09,1.24c.74,.87,.99,1.75,.99,2.84,0,.46-.06,1.07-.06,1.07Zm-6.49-1.42h4.83c-.11-.84-.44-1.33-.84-1.62-.45-.34-.86-.43-1.53-.43s-1.35,.29-1.63,.54c-.4,.35-.74,.75-.83,1.51Z"/>
  <path d="M52.66,13.74c.3,0,.57,.11,.78,.32,.22,.21,.33,.47,.33,.77s-.11,.56-.33,.77c-.22,.22-.48,.33-.78,.33-.29,0-.54-.11-.75-.33-.22-.22-.33-.48-.33-.77s.11-.54,.33-.76c.22-.22,.47-.33,.75-.33Zm-.92,3.94h1.85v9.36h-1.85v-9.36Z"/>
  <path d="M58.01,17.68v1.4c.53-.76,1.29-1.32,2.49-1.38,.58-.03,.97,0,1.55,.28,.53,.25,1.06,.73,1.38,1.21s.57,1.36,.57,2.5v5.35h-1.85v-4.64c0-.96-.05-1.59-.42-2.13-.43-.65-1.24-.83-1.85-.73-.93,.15-1.87,1.01-1.87,3.41v4.09h-1.89v-9.36h1.89Z"/>
  <path d="M77.85,17.68v1.62l.1-.16c.78-1.27,1.84-1.48,2.4-1.5,.39-.01,1.33-.03,2.2,.53l-.17,1.3c0,.19-.2,.32-.38,.25-.77-.31-1.55-.31-1.99-.23-.59,.11-1.22,.58-1.62,1.14-.44,.61-.54,1.27-.54,2.4v4.01h-1.86v-9.36h1.86Z"/>
  <path d="M69.87,17.61c1.21,0,2.22,.46,3.03,1.39,.8,.92,1.21,2.08,1.21,3.48s-.41,2.48-1.22,3.38-1.84,1.34-3.08,1.34-2.2-.45-3-1.37c-.8-.91-1.21-2.05-1.21-3.41s.41-2.52,1.22-3.44,1.83-1.38,3.06-1.38Zm-.09,1.68c-.76,0-1.14,.29-1.63,.88s-.64,1.33-.64,2.24,.16,1.63,.65,2.2,.9,.85,1.68,.85,1.22-.29,1.72-.86c.49-.58,.68-1.31,.68-2.21s-.19-1.63-.71-2.22c-.51-.59-.98-.88-1.76-.88Z"/>
  <g>
    <path class="cls-1" d="M88.18,14.47h2.63c2.23,0,3.77,.59,4.95,1.76,1.18,1.17,1.76,2.69,1.76,4.55s-.58,3.33-1.75,4.52c-1.16,1.19-2.65,1.78-4.79,1.78h-2.8V14.47Zm.98,.81v10.99h1.77c1.63,0,2.99-.5,4.08-1.5,1.09-1,1.63-2.33,1.63-3.99s-.54-2.94-1.61-3.96-2.46-1.54-4.16-1.54h-1.7Z"/>
    <path class="cls-1" d="M106.84,22.62h-6.55c-.02,.14-.03,.29-.03,.43,0,.93,.33,1.71,.99,2.36s1.44,.97,2.35,.97c1.05,0,2.08-.41,3.09-1.24v1c-.95,.73-2.02,1.1-3.2,1.1s-2.19-.42-2.97-1.25-1.17-1.89-1.17-3.17c0-1.22,.36-2.22,1.08-3.02,.72-.8,1.63-1.2,2.73-1.2,1.03,0,1.9,.36,2.61,1.08,.71,.72,1.07,1.7,1.07,2.93Zm-6.43-.71h5.38c-.31-1.62-1.19-2.43-2.63-2.43-.68,0-1.27,.21-1.77,.64-.5,.42-.83,1.02-.99,1.79Z"/>
    <path class="cls-1" d="M113.19,19.32v.96c-.84-.57-1.6-.85-2.28-.85-.5,0-.92,.14-1.26,.4-.34,.27-.51,.6-.51,1,0,.28,.1,.54,.31,.78s.78,.54,1.72,.9c.94,.36,1.56,.74,1.85,1.13s.43,.83,.43,1.31c0,.64-.26,1.19-.79,1.63-.52,.44-1.17,.66-1.94,.66-.84,0-1.67-.25-2.49-.76v-.87c.98,.51,1.85,.76,2.61,.76,.51,0,.93-.14,1.26-.41,.33-.27,.49-.62,.49-1.04,0-.29-.11-.55-.32-.8s-.79-.55-1.73-.93c-.94-.37-1.55-.74-1.83-1.11-.28-.36-.42-.77-.42-1.21,0-.63,.26-1.17,.78-1.61,.52-.44,1.15-.66,1.9-.66,.68,0,1.42,.23,2.22,.7Z"/>
    <path class="cls-1" d="M116.21,14.47v1.52h-.89v-1.52h.89Zm0,4.31v8.31h-.89v-8.31h.89Z"/>
    <path class="cls-1" d="M125.21,18.78v.72h-1.89c.76,.7,1.15,1.43,1.15,2.2,0,.69-.15,1.24-.45,1.64-.3,.4-.65,.7-1.07,.88-.41,.18-.96,.36-1.65,.54-.69,.18-1.12,.34-1.29,.5-.18,.16-.26,.34-.26,.54,0,.24,.11,.43,.34,.58,.23,.14,.93,.25,2.1,.32,1.18,.07,1.97,.29,2.38,.68s.61,.9,.61,1.54c0,.75-.33,1.34-.98,1.77-.66,.43-1.57,.65-2.74,.65s-2.06-.2-2.69-.61c-.63-.41-.95-.94-.95-1.61,0-1.08,.81-1.75,2.42-2.01v-.04c-.9-.21-1.35-.61-1.35-1.18s.55-1.04,1.66-1.35v-.04c-.73-.22-1.28-.58-1.66-1.08-.38-.5-.56-1.06-.56-1.68,0-.87,.3-1.58,.91-2.14,.61-.55,1.48-.83,2.62-.83h3.33Zm-3.68,11.82c.86,0,1.55-.15,2.05-.44,.51-.29,.76-.68,.76-1.17,0-.98-.88-1.46-2.65-1.46-2.01,0-3.02,.51-3.02,1.54s.95,1.54,2.84,1.54Zm-.13-6.65c.61,0,1.13-.22,1.57-.65,.44-.44,.65-.96,.65-1.57s-.22-1.13-.65-1.56c-.44-.43-.96-.65-1.58-.65s-1.13,.21-1.55,.63-.63,.93-.63,1.54,.21,1.16,.64,1.6c.43,.44,.95,.66,1.56,.66Z"/>
    <path class="cls-1" d="M127.42,18.78v1.44h.04c.69-1.07,1.6-1.61,2.74-1.61,.94,0,1.69,.3,2.25,.9,.56,.6,.84,1.44,.84,2.5v5.07h-.88v-4.73c0-1.91-.75-2.87-2.26-2.87-1.1,0-2.01,.59-2.72,1.78v5.82h-.88v-8.31h.88Z"/>
  </g>
</svg>