<svg id="Layer_1" xmlns="http://www.w3.org/2000/svg" viewBox="0 0 271.75 81.66"><defs><style>.cls-1{fill:#231f20;}</style></defs><path d="M44.61,3.13c.37-1.31-.77-2.67-2.08-3.02s-4.55,.31-5.87,.65c-7.68,2.03-11.34,3.72-17.08,7.25-4.91,3.02-11.71,8.22-12.95,14.31-1.31,6.42,4.42,12.25,9.85,14.6,4.57,1.97,9.8,2.26,14.69,1.67,4.64-.56,9.64-1.41,13.48-4.27,3.24-2.41,3.96-6.55,.78-9.36-2.46-2.17-6.18-2.78-9.35-2.76-7.41,.05-14.95,2.01-21.41,5.8-5.79,3.39-13.62,9.6-12.93,17.16,.63,6.99,8.93,11.53,14.94,13.41,9,2.82,20.64,.34,26.97-4.41,1.17-.88,2.36-2.36,2.16-3.81-.16-1.2-1.23-2.05-2.29-2.64-4.42-2.47-9.82-2.53-14.82-1.71-11.15,1.82-23.97,8.62-27.91,19.94-.81,2.33-1.1,4.9-.44,7.28,3.3,11.99,26.12,8.85,35.45,4.97,3.26-1.36,5.69-2.92,7.69-4.59-1.82,.76-5.32,1.93-6.3,2.16-5.71,1.35-10.88,2.46-16.76,2.51-4.61,.03-12.54-.4-15.58-4.64-1.13-1.58-1.34-3.69-.89-5.57,2.36-9.77,13.74-15.53,22.3-17.67,4.35-1.09,11.41-1.95,15.76-.13,.96,.4,1.31,.9-1.01,2.09-2.1,1.08-11.44,5.41-19.35,4.1-9.2-1.53-17.62-7.58-16.69-12.52,.94-5.03,5.96-9.35,10.22-11.58,6.24-3.26,13.17-5.28,20.17-6,2.4-.24,4.84-.33,7.19,.2,1.07,.24,2.18,.66,2.83,1.55,.17,.23,.3,.5,.29,.78-.01,.49-1.51,1.76-1.91,2.04-2.42,1.72-6.76,3.06-11.12,4.02-5.85,1.29-15.24,.67-19.74-4.37-1.72-1.92-2.49-3.64-2.39-5.67,.16-3.1,2.09-5.79,4.22-7.9C23.2,8.59,34.15,5.74,44.61,3.13Z"/><path d="M63.93,26.15h4.15v25.22h13.05v3.78h-17.2V26.15Z"/><path d="M100.97,46.17h-13.31c.1,1.83,.59,3.16,1.72,4.24s2.7,1.5,4.49,1.5c2.24,0,4.32-.62,6.24-1.87,.28-.18,.65,.02,.65,.35v2.65c-.98,1.08-2.31,1.57-3.46,1.9-1.14,.33-2.48,.5-4.02,.5-2.1,0-4.04-.44-5.34-1.31-1.3-.87-2.22-1.8-3-3.28-.78-1.47-1.05-3.42-1.05-5.36,0-2.91,.7-5.39,2.35-7.21,1.65-1.82,3.9-2.61,6.53-2.61s4.79,.77,6.3,2.54c1.51,1.77,2.01,3.58,2.01,5.78,0,.95-.11,2.17-.11,2.17Zm-13.22-2.9h9.85c-.23-1.72-.9-2.7-1.71-3.31-.92-.69-1.76-.88-3.11-.88s-2.76,.59-3.33,1.1c-.81,.72-1.52,1.53-1.69,3.08Z"/><path d="M107.37,28.02c.62,0,1.15,.21,1.6,.64,.44,.43,.66,.95,.66,1.58s-.22,1.14-.66,1.58c-.44,.44-.98,.66-1.6,.66-.58,0-1.09-.22-1.54-.67-.44-.45-.66-.97-.66-1.57s.22-1.1,.66-1.55c.44-.45,.96-.67,1.54-.67Zm-1.87,8.03h3.78v19.09h-3.78v-19.09Z"/><path d="M118.27,36.05v2.86c1.07-1.55,2.63-2.7,5.08-2.81,1.19-.06,1.98,.01,3.15,.56,1.08,.51,2.16,1.49,2.81,2.47s1.16,2.77,1.16,5.1v10.92h-3.78v-9.46c0-1.95-.11-3.24-.85-4.35-.88-1.33-2.53-1.69-3.77-1.49-1.9,.31-3.81,2.06-3.81,6.96v8.33h-3.86v-19.09h3.86Z"/><path d="M158.73,36.05v3.3l.21-.33c1.59-2.59,3.74-3.02,4.89-3.06,.79-.03,2.72-.05,4.48,1.08l-.36,2.65c0,.4-.4,.66-.77,.51-1.58-.63-3.16-.64-4.05-.46-1.19,.23-2.48,1.19-3.3,2.32-.9,1.25-1.1,2.59-1.1,4.9v8.18h-3.8v-19.09h3.8Z"/><path d="M142.45,35.91c2.48,0,4.54,.94,6.17,2.83,1.64,1.88,2.46,4.25,2.46,7.1s-.83,5.06-2.49,6.89-3.76,2.74-6.28,2.74-4.48-.93-6.12-2.78c-1.64-1.86-2.46-4.17-2.46-6.95s.83-5.15,2.49-7.02,3.74-2.8,6.24-2.8Zm-.18,3.42c-1.55,0-2.33,.6-3.32,1.79s-1.3,2.72-1.3,4.57,.32,3.33,1.33,4.49,1.83,1.74,3.43,1.74,2.49-.59,3.5-1.76c1.01-1.18,1.38-2.68,1.38-4.51s-.39-3.33-1.44-4.52c-1.05-1.2-1.99-1.79-3.58-1.79Z"/><g><path class="cls-1" d="M179.79,29.5h5.35c4.55,0,7.69,1.2,10.09,3.59,2.4,2.39,3.6,5.49,3.6,9.28s-1.19,6.79-3.56,9.21c-2.37,2.42-5.4,3.64-9.77,3.64h-5.7V29.5Zm1.99,1.66v22.41h3.61c3.33,0,6.1-1.02,8.31-3.07,2.22-2.04,3.32-4.75,3.32-8.13s-1.09-6-3.28-8.08c-2.18-2.09-5.01-3.13-8.49-3.13h-3.48Z"/><path class="cls-1" d="M217.85,46.13h-13.35c-.04,.29-.05,.59-.05,.88,0,1.89,.67,3.49,2.02,4.8s2.95,1.97,4.79,1.97c2.15,0,4.25-.84,6.3-2.52v2.04c-1.94,1.5-4.11,2.25-6.52,2.25s-4.46-.85-6.06-2.54c-1.6-1.69-2.39-3.85-2.39-6.46,0-2.48,.74-4.53,2.21-6.16,1.47-1.63,3.33-2.44,5.56-2.44,2.1,0,3.87,.73,5.32,2.2,1.45,1.47,2.17,3.46,2.17,5.97Zm-13.11-1.46h10.97c-.64-3.3-2.42-4.95-5.36-4.95-1.39,0-2.59,.43-3.6,1.3-1.01,.87-1.68,2.08-2.02,3.65Z"/><path class="cls-1" d="M230.79,39.39v1.95c-1.72-1.15-3.26-1.73-4.64-1.73-1.02,0-1.88,.28-2.58,.83-.7,.55-1.05,1.23-1.05,2.04,0,.58,.21,1.11,.64,1.59s1.6,1.1,3.52,1.84c1.92,.74,3.17,1.51,3.76,2.31s.88,1.69,.88,2.67c0,1.31-.53,2.42-1.6,3.32-1.07,.9-2.39,1.35-3.96,1.35-1.71,0-3.4-.52-5.08-1.55v-1.77c2,1.03,3.77,1.55,5.32,1.55,1.04,0,1.9-.28,2.57-.83,.67-.55,1-1.26,1-2.12,0-.59-.22-1.13-.65-1.63s-1.61-1.13-3.53-1.89c-1.92-.76-3.17-1.51-3.74-2.26-.57-.74-.86-1.57-.86-2.48,0-1.29,.53-2.38,1.59-3.29,1.06-.9,2.35-1.35,3.88-1.35,1.39,0,2.9,.48,4.53,1.44Z"/><path class="cls-1" d="M236.94,29.5v3.09h-1.82v-3.09h1.82Zm0,8.78v16.94h-1.82v-16.94h1.82Z"/><path class="cls-1" d="M255.29,38.28v1.47h-3.85c1.56,1.42,2.34,2.92,2.34,4.49,0,1.41-.3,2.53-.91,3.35-.61,.82-1.33,1.42-2.17,1.8-.84,.37-1.96,.74-3.36,1.1-1.4,.36-2.28,.7-2.63,1.02-.36,.32-.53,.69-.53,1.1,0,.49,.23,.88,.69,1.18,.46,.29,1.89,.51,4.29,.64,2.4,.14,4.02,.59,4.85,1.38s1.25,1.83,1.25,3.13c0,1.53-.67,2.74-2.01,3.62-1.34,.88-3.2,1.32-5.58,1.32s-4.2-.41-5.49-1.24c-1.29-.83-1.93-1.92-1.93-3.29,0-2.21,1.64-3.58,4.93-4.11v-.07c-1.83-.43-2.74-1.23-2.74-2.41s1.13-2.11,3.39-2.76v-.07c-1.49-.44-2.61-1.17-3.38-2.2-.77-1.03-1.15-2.16-1.15-3.42,0-1.78,.62-3.23,1.86-4.35,1.24-1.12,3.02-1.68,5.34-1.68h6.79Zm-7.51,24.1c1.76,0,3.15-.3,4.19-.9,1.04-.6,1.56-1.39,1.56-2.38,0-1.99-1.8-2.98-5.39-2.98-4.1,0-6.15,1.04-6.15,3.13s1.93,3.13,5.8,3.13Zm-.26-13.57c1.24,0,2.3-.45,3.19-1.33,.89-.89,1.33-1.95,1.33-3.19s-.45-2.3-1.33-3.18c-.89-.88-1.97-1.32-3.23-1.32s-2.31,.43-3.17,1.29-1.29,1.9-1.29,3.13,.44,2.36,1.31,3.26c.87,.9,1.93,1.34,3.18,1.34Z"/><path class="cls-1" d="M259.8,38.28v2.95h.07c1.41-2.18,3.27-3.28,5.58-3.28,1.91,0,3.44,.61,4.58,1.84,1.14,1.23,1.71,2.93,1.71,5.1v10.33h-1.8v-9.65c0-3.9-1.53-5.85-4.6-5.85-2.25,0-4.09,1.21-5.54,3.63v11.88h-1.8v-16.94h1.8Z"/></g></svg>