<?xml version="1.0" encoding="UTF-8"?>
<svg id="Layer_1" data-name="Layer 1" xmlns="http://www.w3.org/2000/svg" viewBox="0 0 5200.09 6255.81">
  <defs>
    <style>
      .cls-1 {
        fill: #fff;
      }

      .cls-2 {
        fill: #eacbb3;
      }

      .cls-3 {
        fill: #317697;
      }

      .cls-4 {
        fill: #cca052;
      }

      .cls-5 {
        fill: #d9d9d6;
      }

      .cls-6 {
        fill: #231f20;
      }

      .cls-7 {
        fill: #083c5c;
      }

      .cls-8 {
        fill: #606161;
      }
    </style>
  </defs>
  <g>
    <rect class="cls-1" x="1534.45" y="249.43" width="52.01" height="1466.79" transform="translate(-8.55 13.7) rotate(-.5)"/>
    <rect class="cls-1" x="2414.76" y="240.26" width="52.01" height="1466.79" transform="translate(-8.43 21.41) rotate(-.5)"/>
    <rect class="cls-1" x="2047.51" y="-112.4" width="52.01" height="2162.11" transform="translate(1015.98 2998.28) rotate(-87.52)"/>
    <path class="cls-1" d="M998.13,188.59l138.37,4531.75L9.52,4830.9,137.38,166.02s607.62,3.21,860.75,22.57Z"/>
    <path class="cls-1" d="M2862.31,179.06l69.13,4410.61,1043.21-76.07L3685,299.36s-569.55-139.66-822.68-120.3Z"/>
    <rect class="cls-1" x="752.86" y="1639.52" width="2455.73" height="222.65" transform="translate(45.12 -49.75) rotate(1.46)"/>
    <polygon class="cls-1" points="3689.91 376.08 134.42 222.45 143.47 0 3675.96 153.63 3689.91 376.08"/>
  </g>
  <g>
    <path class="cls-6" d="M0,4986.52c196.9,151.67,393.8,297.72,590.7,439.45,1353.9-143.23,2707.8-285.77,4061.7-407.92,19.47-145.87,38.93-291.15,58.4-435.95-1570.26,102.88-3140.53,273.33-4710.79,404.42Z"/>
    <path class="cls-6" d="M3396.37,4358.37c-843.54,37.12-1687.08,85.12-2530.63,120.77-67,2.9-122.46-52.28-123.86-123.21-12.23-619.15-24.46-1243.14-36.69-1871.74-1.4-72.01,51.78-128.67,118.79-126.48,843.54,26.84,1687.09,54.8,2530.63,85.54,67,2.5,122.46,55.97,123.86,119.47,12.23,555.26,24.46,1113.24,36.69,1674.11,1.4,64.15-51.78,118.54-118.79,121.54Z"/>
    <path class="cls-7" d="M3382.29,4303c-834.97,35.09-1669.94,81.05-2504.9,114.56-42.16,1.72-77.05-32.99-77.93-77.51-12.07-609.94-24.15-1224.69-36.22-1844.07-.88-45.21,32.58-80.84,74.74-79.55,834.97,25.01,1669.94,49.96,2504.9,78.33,42.16,1.45,77.05,35.11,77.93,75.18,12.07,549.59,24.15,1101.72,36.22,1656.58,.88,40.46-32.58,74.69-74.74,76.49Z"/>
    <path class="cls-6" d="M2275.93,4395.94c.36,17.1,.71,34.2,1.07,51.3,.93,44.36-34.24,82.26-78.55,84.66-44.31,2.41-80.98-31.81-81.9-76.45-.36-17.19-.71-34.38-1.07-51.57-85.78,4.24-171.56,8.48-257.33,12.68,3.64,176.89,7.28,353.49,10.91,529.83,228.58-15.03,457.16-30.16,685.74-45.13-3.64-172.84-7.28-345.68-10.92-518.54-89.32,4.38-178.64,8.8-267.96,13.22Z"/>
    <path class="cls-1" d="M1372.57,4970.71c82.16,72.63,164.32,144.52,246.48,215.8,502.42-52.84,1004.84-105.34,1507.26-155.89-51.05-63.9-102.1-128.07-153.14-192.52-533.53,43.08-1067.06,88.39-1600.6,132.61Z"/>
  </g>
  <rect class="cls-8" x="2044.65" y="4490.84" width="80.46" height="651.45" rx="40.23" ry="40.23" transform="translate(2947.71 -360.45) rotate(32.87)"/>
  <g>
    <path class="cls-5" d="M1327.08,4204.15c-34.9,0-67.87-13.1-93.47-37.28-28.81-27.22-44.86-64.88-45.21-106.04l-7.05-843.65c-.34-41.15,15.04-79.4,43.31-107.72,26.66-26.71,62.02-41.01,99.13-41.04,532.48,2.87,1070.33,6.17,1598.6,9.79,79.09,.64,143.99,62.74,144.68,138.44l7.05,769.92c.7,75.4-62.87,139.73-141.69,143.41h0c-534.63,24.36-1072.47,49.27-1598.59,74.02-2.26,.1-4.52,.16-6.76,.16Zm-4.19-1107.66c-29.43,0-57.22,11.63-78.35,32.8-22.92,22.96-35.38,54.09-35.1,87.65l7.05,843.65c.28,33.46,13.21,63.95,36.41,85.87,21.63,20.44,49.72,30.98,79.61,29.48,526.14-24.75,1064-49.65,1598.64-74.02,63.92-2.99,115.46-54.62,114.91-115.1l-7.05-769.92c-.56-60.48-52.95-110.1-116.81-110.61-528.24-3.62-1066.08-6.92-1598.57-9.79-.25,0-.49,0-.73,0Zm1608.89,1019.45h0Z"/>
    <path class="cls-5" d="M1829.31,4180.77c-7.7,0-13.97-6.2-14.04-13.92l-9.32-1081.5c-.07-7.75,6.17-14.09,13.92-14.16,7.7-.35,14.09,6.16,14.16,13.92l9.32,1081.5c.07,7.76-6.17,14.09-13.92,14.16h-.13Z"/>
    <path class="cls-5" d="M2435.49,4152.71c-7.69,0-13.97-6.2-14.04-13.92l-9.31-1049.71c-.07-7.75,6.16-14.1,13.92-14.17,7.74,.23,14.1,6.16,14.17,13.92l9.31,1049.72c.07,7.75-6.16,14.09-13.92,14.16h-.13Z"/>
    <path class="cls-5" d="M1197.45,3476.75c-7.67,0-13.94-6.17-14.04-13.86-.1-7.75,6.11-14.12,13.86-14.22,618.1-7.82,1243.11-15.19,1857.65-21.91h.16c7.68,0,13.95,6.19,14.04,13.89,.08,7.75-6.13,14.11-13.88,14.19-614.54,6.72-1239.53,14.09-1857.62,21.91h-.18Z"/>
    <path class="cls-5" d="M3319.22,2843.51c-.1,0-.2,0-.31,0-800.43-16.9-1612.14-33.13-2412.6-48.25-7.75-.14-13.92-6.55-13.77-14.3,.14-7.75,6.32-14.23,14.3-13.77,800.48,15.12,1612.21,31.35,2412.66,48.25,7.75,.16,13.91,6.58,13.74,14.33-.16,7.65-6.42,13.74-14.03,13.74Z"/>
    <path class="cls-5" d="M1200.45,3836.43c-7.56,0-13.8-6.02-14.02-13.63-.23-7.75,5.86-14.22,13.62-14.45,617.2-18.25,1242.21-36.2,1857.67-53.35,7.71,.07,14.21,5.9,14.43,13.65,.21,7.75-5.9,14.21-13.65,14.43-615.44,17.15-1240.43,35.09-1857.62,53.34-.14,0-.28,0-.42,0Z"/>
    <path class="cls-5" d="M1179.08,2637.39c-.08,0-.17,0-.26,0l-148.98-3.95c-5.17-.14-9.25-4.44-9.11-9.6,.14-5.17,4.45-9.13,9.6-9.11l148.99,3.95c5.17,.14,9.24,4.44,9.11,9.61-.13,5.08-4.3,9.11-9.35,9.11Z"/>
    <path class="cls-5" d="M1179.43,2679.78c-.08,0-.15,0-.23,0l-148.98-3.65c-5.17-.13-9.26-4.42-9.13-9.59,.13-5.17,4.57-9.2,9.59-9.13l148.98,3.65c5.17,.13,9.26,4.42,9.13,9.59-.13,5.09-4.29,9.13-9.35,9.13Z"/>
    <path class="cls-5" d="M1179.78,2722.18c-.07,0-.14,0-.21,0l-148.98-3.35c-5.17-.12-9.26-4.4-9.15-9.57,.12-5.17,4.59-9.24,9.57-9.15l148.98,3.35c5.17,.12,9.26,4.4,9.15,9.57-.12,5.1-4.28,9.15-9.35,9.15Z"/>
    <path class="cls-5" d="M2762.85,2755.35c-.4,0-.8,0-1.2-.01-26.97-.65-49.11-23.21-49.35-50.29-.12-13.32,4.97-25.69,14.31-34.86,9.29-9.11,21.5-14,34.85-13.54,26.94,.78,49.06,23.33,49.31,50.29h0c.12,13.22-4.93,25.54-14.22,34.69-9,8.87-20.93,13.72-33.69,13.72Zm-2.82-78.87c-7.42,0-14.32,2.78-19.53,7.89-5.46,5.35-8.43,12.63-8.35,20.5,.14,16.49,13.59,30.22,29.97,30.62,7.93,.07,15.06-2.66,20.49-8,5.42-5.35,8.37-12.58,8.31-20.37-.16-16.41-13.63-30.15-30.03-30.62-.29,0-.57-.01-.86-.01Z"/>
    <path class="cls-5" d="M2952.18,2759.96c-.41,0-.82,0-1.24-.01-26.97-.65-49.1-23.04-49.34-49.91-.12-13.14,4.91-25.38,14.18-34.46,9.31-9.12,21.75-13.98,34.98-13.56,26.94,.78,49.06,23.17,49.3,49.92,.12,13.05-4.88,25.23-14.09,34.3-9.01,8.88-20.98,13.72-33.78,13.72Zm-2.87-78.11c-7.48,0-14.42,2.79-19.64,7.9-5.37,5.26-8.29,12.4-8.22,20.11,.15,16.28,13.6,29.85,29.98,30.24,7.8,.13,15.17-2.66,20.6-8.01,5.34-5.26,8.24-12.35,8.18-19.98-.15-16.2-13.62-29.77-30.03-30.24-.29,0-.58-.01-.87-.01Z"/>
    <path class="cls-5" d="M3146.08,2764.72c-.41,0-.83,0-1.25-.01-26.97-.65-49.11-22.87-49.34-49.53-.12-12.97,4.86-25.06,14.04-34.05,9.32-9.14,21.54-13.95,35.12-13.57,26.94,.78,49.06,23,49.3,49.53,.12,12.87-4.84,24.91-13.95,33.89-9.02,8.89-21.03,13.75-33.91,13.75Zm-2.9-77.33c-7.54,0-14.53,2.79-19.76,7.91-5.27,5.18-8.15,12.17-8.08,19.7,.14,16.07,13.59,29.46,29.98,29.86,7.91,.07,15.29-2.66,20.74-8.03,5.25-5.17,8.1-12.12,8.04-19.56-.15-15.99-13.62-29.39-30.03-29.87-.3,0-.6-.01-.89-.01Z"/>
  </g>
  <g>
    <path class="cls-8" d="M2667.7,5310.39s-65.36,589.46,87.57,690.8c152.92,101.35,847.46,287.3,1062.9,249.66,215.44-37.63,1178.7-176.4,1187.58-348.47,8.88-172.07,236.42-1377.2,172.4-1390.3-64.02-13.1-1154.86,155.93-1244.32,247.16-89.45,91.23-502.67,378.43-655.7,491.72-149.49,110.67-553.24-162.12-610.42,59.42Z"/>
    <g>
      <path class="cls-6" d="M5189.08,4591.2s114.89-157.02-397.45-151.32c-326.14,3.63-1338.44,372.72-1456.7,421.39-671.95,276.52-601.37,166.22-614.52,315.45-21.47,243.75,1018.2-224.29,1137.2-263.03,852.47-277.51,241.43-141.6,1331.47-322.5Z"/>
      <path class="cls-6" d="M2649.78,5260.54l160.08-58.68c7.55-4.8,16.24-6.93,24.85-6.08l1377.25-426.02c107.88,0-117.4,44.31-159.57,135.96-64.75,140.72-151.1,367.56-270.49,566.8-27.52,45.92-126.23,21.46-230.87,17.36-120.42-4.72-339.43-25.92-480.48-38.84-119.44-10.94-407.87-70.63-407.87-70.63-39.58-4.92-47.67-97.75-12.9-119.86Z"/>
      <path class="cls-6" d="M3901.29,5246.73c-109.81,184.43-176.67,973.41-127.68,1009.09-46.29,0-74.44-3.09-95.15-3.09,20.7-20.28,85.21-743.27-15.94-754.46,128.95-40.21,138.24-114.67,238.77-251.54Z"/>
    </g>
  </g>
  <g>
    <path class="cls-3" d="M2406.26,4785.4s-72.75,232.8-72.75,254.62,426.73,293.87,448.55,293.87,169.82-31.97,191.64-24.69c21.82,7.27,41.14,57.36,60.97,57.36s668.51,5.67,688.34,0c19.83-5.67,239.4-323.63,327.51-754.03,74.56,0,493.25-120.94,865.13-167.48-20.33-50.83-52.38-97.99-52.38-169.15s-13.56-340.59-382.95-552.4c-94.89-52.53-115.22-86.42-138.95-83.03-23.72,3.39-288.06,94.42-626.95-.23-16.94,57.84-20.33,81.57-57.61,88.35-37.28,6.78-281.28-23.72-359.23,105.06-77.95,128.78-71.17,186.39-40.67,355.84,30.5,169.45,91.32,628.88,74.38,625.49-16.94-3.39-308.21-8.7-338.71-5.31-30.5,3.39-81.33,20.33-98.28,20.33s-139.48-67.78-157.85-67.78-319.99,0-330.19,23.2Z"/>
    <g>
      <ellipse class="cls-2" cx="3988.81" cy="2975.74" rx="560.55" ry="632.14" transform="translate(-265.99 394.59) rotate(-5.48)"/>
      <path class="cls-4" d="M4965.75,3765.82c-57.47-66.3-128.07-79.52-77.14-228.04,86.6-252.57-46.46-719.74-180.42-958.89-85.21-283.03-366.34-512.27-666.13-446.77-632.37,138.18-527.93,406.76-512.76,741.24-20.68,221.06-49.08,438.41,29.57,599.72,58.72,120.44,23.54,133.26-14.48,198.52-51.05,87.63-1.18,190.73,93.71,125.26,0,0-85.33,2.22-48.92-69.93,13.48-26.71,43.97-47.31,70.64-76.68,23.32,76.74,11.99,122.04,4.38,168.15-13.79,83.62-20.89,162.42-11.39,213.37,16.08,86.16,89.15,115.23,111.45,161.6,35.03,72.84-50.24,68.99-50.24,68.99,93.61,67.27,145.45-34.86,96.08-123.45-32.64-58.56-63.76-75.84-27.69-162.4,21.27,63.65,46.04,120.48,73.7,165.04,70.66,113.84,36.96,130.18,5.77,198.96-41.88,92.36,18.22,189.86,105.95,115.09,0,0-84.66,10.88-55.77-64.6,12.01-31.37,46.11-57.26,70.87-95.65,55.46,97.03,23.9,115.32-5.48,180.1-41.88,92.36,18.22,189.86,105.95,115.09,0,0-84.66,10.88-55.77-64.6,12.21-31.91,47.31-58.16,72.16-97.67,1.16,13.03,2.89,25.07,5.36,35.77,19.65,85.41,93.88,111.41,118.09,156.82,38.04,71.31-47.32,71.02-47.32,71.02,96.34,63.3,143.87-40.9,90.85-127.35-11.17-18.22-22.02-32.24-30.57-45.75,59.51,68.55,244.92,213.01,179.5,248.51-54.31,29.47-61.33-58.81-61.33-58.81-87.86,144.43,214.16,165.84,120.12-96.65-5.2-14.5-11.13-26.48-16.75-37.38,6.68,4.27,13.25,8.23,19.74,12,56.06,71.97,131.1,130.79,189.74,80.81,0,0-84.66,10.88-55.77-64.6,8.29-21.67,27.16-40.72,46.2-63.06-.63,86.63,73.23,144.98,133.66,59.05,0,0-79.27,31.66-70.12-48.64,5.08-44.58,50.91-89.44,53.86-157.63,28.26,19.07,56.49,32.62,72.69,53.39,49.71,63.73-34.43,78.09-34.43,78.09,105.77,45.83,134.72-64.98,67.65-141.05-49.95-56.65-86.95-62.42-52.69-191.95,.17-.66,.33-1.34,.5-2.01,27.85,28.5,70.2,28.89,105.62-25.25,0,0-78.17,34.3-71.71-46.27,4.11-51.29,61.81-104.73,45.79-190.89-8-43.04-34.25-100.37-68.1-161.15,37.28,30.97,76.78,47.26,99.75,76.82,58.11,74.77-24.98,94.41-24.98,94.41,112.43,51.72,127.78-81.67,50.62-170.69Zm-294.95,356.78c.13-1.89,.25-3.75,.37-5.65,.15,2.48,.32,4.93,.48,7.39-.29-.57-.57-1.16-.85-1.74Z"/>
    </g>
    <path class="cls-2" d="M2400.11,4805.21s-72.94-.96-149.89-69.9c-9.83-8.81-98.69-91.66-213.05-46.5-136.27,53.82-125.28,198.59-79.44,266.49,29.05,43.04,127.16,102.76,244.16,54.9,31.67-17.36,90.55-7.54,148.24,13.19,0,0,74.09-212.1,49.98-218.18Z"/>
  </g>
</svg>