<?xml version="1.0" encoding="UTF-8"?><svg id="Layer_1" xmlns="http://www.w3.org/2000/svg" viewBox="0 0 1106.67 1106.36"><defs><style>.cls-1{fill:#fff;}</style></defs><path class="cls-1" d="M668.06,553.02L1096.78,124.29c13.18-13.18,13.18-34.63,0-47.81l-66.9-66.89c-12.74-12.77-35.02-12.78-47.82,0l-428.72,428.73L124.61,9.58c-12.76-12.78-35.05-12.77-47.81,0L9.92,76.47C3.52,82.86,0,91.35,0,100.38s3.52,17.53,9.91,23.91l428.72,428.73L9.91,981.74c-6.39,6.39-9.91,14.88-9.91,23.91s3.52,17.52,9.91,23.91l66.9,66.9c6.38,6.39,14.87,9.9,23.91,9.9s17.52-3.51,23.9-9.9l428.73-428.73,428.73,428.73c13.18,13.19,34.64,13.17,47.81,0l66.9-66.9c13.17-13.18,13.17-34.63,0-47.81l-428.72-428.73Z"/></svg>